<svg xmlns="http://www.w3.org/2000/svg" width="734" height="124" fill="none"><path fill="#000" d="M37.048 13.448c-6.888.219-12.19 2.843-15.908 7.872-3.608 5.03-5.412 13.721-5.412 26.076 0 4.045.383 6.888 1.148 8.528.765 1.53 1.148 2.405 1.148 2.624-5.904 0-10.332-1.203-13.284-3.608C1.897 52.425.476 48.325.476 42.64c0-7.763 1.913-14.815 5.74-21.156 3.827-6.45 9.895-11.644 18.204-15.58C32.839 1.968 43.499 0 56.4 0c2.624 0 6.123.273 10.496.82 7.872.765 13.448 1.148 16.728 1.148 5.795 0 10.715-.656 14.76-1.968-.328.984-.93 3.17-1.804 6.56-.875 3.28-2.46 6.123-4.756 8.528-2.187 2.296-5.193 3.827-9.02 4.592-6.45 0-14.104-1.039-22.96-3.116L52.956 49.2H76.9l-2.624 12.136H50.332L37.048 123H13.432L37.048 13.448Zm61.17 110.208c-8.091 0-14.487-2.077-19.189-6.232-4.7-4.155-7.052-10.715-7.052-19.68 0-7.435 1.531-15.69 4.592-24.764 3.062-9.075 7.982-16.892 14.76-23.452 6.78-6.67 15.307-10.004 25.584-10.004 13.995 0 20.992 8.747 20.992 26.24v.164c.328.11.93.164 1.804.164 3.608 0 7.763-.93 12.464-2.788 4.702-1.968 8.966-4.319 12.792-7.052l1.476 4.428c-3.17 3.39-7.325 6.287-12.464 8.692-5.029 2.296-10.55 3.936-16.564 4.92-.874 9.95-3.116 18.641-6.724 26.076-3.608 7.435-8.254 13.175-13.94 17.22-5.685 4.045-11.862 6.068-18.532 6.068Zm6.559-14.76c2.624 0 5.248-1.476 7.872-4.428 2.624-3.061 4.92-7.161 6.888-12.3 1.968-5.248 3.39-11.043 4.264-17.384-2.952-.656-4.428-2.952-4.428-6.888 0-4.483 1.695-7.435 5.084-8.856-.218-3.608-.765-6.068-1.64-7.38-.874-1.421-2.405-2.132-4.592-2.132-3.608 0-7.106 2.624-10.496 7.872-3.389 5.248-6.122 11.535-8.2 18.86-2.077 7.325-3.116 13.776-3.116 19.352 0 5.248.602 8.801 1.804 10.66 1.203 1.749 3.39 2.624 6.56 2.624Zm65.511 14.76c-8.091 0-14.487-2.077-19.188-6.232-4.702-4.155-7.052-10.715-7.052-19.68 0-7.435 1.53-15.69 4.592-24.764 3.061-9.075 7.981-16.892 14.76-23.452 6.778-6.67 15.306-10.004 25.584-10.004 13.994 0 20.992 8.747 20.992 26.24v.164c.328.11.929.164 1.804.164 3.608 0 7.762-.93 12.464-2.788 4.701-1.968 8.965-4.319 12.792-7.052l1.476 4.428c-3.171 3.39-7.326 6.287-12.464 8.692-5.03 2.296-10.551 3.936-16.564 4.92-.875 9.95-3.116 18.641-6.724 26.076-3.608 7.435-8.255 13.175-13.94 17.22-5.686 4.045-11.863 6.068-18.532 6.068Zm6.56-14.76c2.624 0 5.248-1.476 7.872-4.428 2.624-3.061 4.92-7.161 6.888-12.3 1.968-5.248 3.389-11.043 4.264-17.384-2.952-.656-4.428-2.952-4.428-6.888 0-4.483 1.694-7.435 5.084-8.856-.219-3.608-.766-6.068-1.64-7.38-.875-1.421-2.406-2.132-4.592-2.132-3.608 0-7.107 2.624-10.496 7.872-3.39 5.248-6.123 11.535-8.2 18.86-2.078 7.325-3.116 13.776-3.116 19.352 0 5.248.601 8.801 1.804 10.66 1.202 1.749 3.389 2.624 6.56 2.624Zm61.246 15.088c-6.232 0-11.425-2.132-15.58-6.396-4.155-4.264-6.232-10.933-6.232-20.008 0-8.09 1.585-16.564 4.756-25.42 3.28-8.965 8.091-16.51 14.432-22.632 6.451-6.232 14.104-9.348 22.96-9.348 4.483 0 7.817.765 10.004 2.296 2.187 1.53 3.28 3.553 3.28 6.068v.656l8.036-37.72 24.272-3.28-18.86 88.56c-.437 1.64-.656 3.389-.656 5.248 0 2.187.492 3.772 1.476 4.756 1.093.875 2.843 1.312 5.248 1.312 3.061 0 5.685-1.312 7.872-3.936 2.296-2.624 4.1-6.123 5.412-10.496h6.888C304.733 113.215 293.745 123 278.438 123c-4.483 0-8.145-1.203-10.988-3.608-2.733-2.405-4.428-5.904-5.084-10.496-2.843 4.373-6.287 7.981-10.332 10.824-3.936 2.843-8.583 4.264-13.94 4.264Zm10.66-15.908c2.624 0 5.248-1.203 7.872-3.608 2.733-2.405 4.592-5.74 5.576-10.004v-.82l8.036-37.556c-.984-3.827-3.225-5.74-6.724-5.74-4.373 0-8.309 2.57-11.808 7.708-3.499 5.03-6.232 11.152-8.2 18.368-1.968 7.107-2.952 13.393-2.952 18.86 0 5.467.765 8.965 2.296 10.496 1.64 1.531 3.608 2.296 5.904 2.296Zm83.212-75.932c-3.608 0-6.669-1.257-9.184-3.772-2.515-2.515-3.772-5.576-3.772-9.184 0-3.608 1.257-6.67 3.772-9.184 2.515-2.624 5.576-3.936 9.184-3.936 3.608 0 6.669 1.312 9.184 3.936 2.624 2.515 3.936 5.576 3.936 9.184 0 3.608-1.312 6.67-3.936 9.184-2.515 2.515-5.576 3.772-9.184 3.772Zm-11.152 91.84c-5.248 0-9.512-1.64-12.792-4.92-3.171-3.28-4.756-8.2-4.756-14.76 0-2.733.437-6.287 1.312-10.66L315.73 41h23.616l-11.808 55.76c-.437 1.64-.656 3.389-.656 5.248 0 2.187.492 3.772 1.476 4.756 1.093.875 2.843 1.312 5.248 1.312 3.171 0 6.123-1.312 8.856-3.936 2.733-2.733 4.701-6.232 5.904-10.496h6.888c-4.045 11.808-9.239 19.844-15.58 24.108-6.341 4.155-12.628 6.232-18.86 6.232Zm50.939 0c-8.091 0-14.378-2.077-18.86-6.232-4.483-4.264-6.724-10.879-6.724-19.844 0-7.544 1.476-15.853 4.428-24.928 2.952-9.075 7.762-16.892 14.432-23.452 6.669-6.67 15.142-10.004 25.42-10.004 12.026 0 18.04 5.248 18.04 15.744 0 6.123-1.75 11.753-5.248 16.892-3.499 5.139-8.146 9.293-13.94 12.464-5.795 3.061-11.972 4.81-18.532 5.248-.219 3.28-.328 5.467-.328 6.56 0 5.357.929 9.02 2.788 10.988 1.858 1.859 4.865 2.788 9.02 2.788 5.904 0 10.933-1.367 15.088-4.1 4.264-2.733 8.91-6.888 13.94-12.464h5.576c-12.136 20.227-27.17 30.34-45.1 30.34ZM372.081 82c4.045-.219 7.872-1.64 11.48-4.264 3.717-2.624 6.669-5.959 8.856-10.004 2.296-4.045 3.444-8.31 3.444-12.792 0-4.483-1.367-6.724-4.1-6.724-3.936 0-7.818 3.444-11.644 10.332-3.718 6.888-6.396 14.705-8.036 23.452Zm55.397 41.984c-5.248 0-9.512-1.64-12.792-4.92-3.17-3.28-4.756-8.2-4.756-14.76 0-2.733.438-6.287 1.312-10.66L428.79 11.48l24.272-3.28-18.86 88.56c-.437 1.64-.656 3.389-.656 5.248 0 2.187.492 3.772 1.476 4.756 1.094.875 2.843 1.312 5.248 1.312 3.171 0 6.123-1.312 8.856-3.936 2.734-2.733 4.702-6.232 5.904-10.496h6.888c-4.045 11.808-9.238 19.844-15.58 24.108-6.341 4.155-12.628 6.232-18.86 6.232Zm47.167 0c-6.232 0-11.425-2.132-15.58-6.396-4.155-4.264-6.232-10.933-6.232-20.008 0-8.09 1.585-16.564 4.756-25.42 3.28-8.965 8.091-16.51 14.432-22.632 6.451-6.232 14.104-9.348 22.96-9.348 4.483 0 7.817.765 10.004 2.296 2.187 1.53 3.28 3.553 3.28 6.068v1.148L510.069 41h23.616l-11.808 55.76c-.437 1.64-.656 3.389-.656 5.248 0 4.701 2.241 7.052 6.724 7.052 3.061 0 5.685-1.421 7.872-4.264 2.296-2.843 4.1-6.56 5.412-11.152h6.888c-4.045 11.808-9.075 19.844-15.088 24.108-5.904 4.155-11.863 6.232-17.876 6.232-4.592 0-8.309-1.257-11.152-3.772-2.733-2.624-4.373-6.396-4.92-11.316-3.171 4.483-6.724 8.145-10.66 10.988-3.827 2.733-8.419 4.1-13.776 4.1Zm10.66-15.908c2.733 0 5.412-1.257 8.036-3.772 2.733-2.624 4.592-6.177 5.576-10.66l7.872-37.064c0-1.421-.547-2.788-1.64-4.1-1.093-1.421-2.788-2.132-5.084-2.132-4.373 0-8.309 2.57-11.808 7.708-3.499 5.03-6.232 11.152-8.2 18.368-1.968 7.107-2.952 13.393-2.952 18.86 0 5.467.765 8.965 2.296 10.496 1.64 1.531 3.608 2.296 5.904 2.296Zm115.188 15.908c-6.669 0-11.589-1.749-14.76-5.248-3.061-3.608-4.592-8.036-4.592-13.284 0-2.296.273-4.865.82-7.708a608.472 608.472 0 0 1 1.64-8.528c.656-2.733 1.093-4.483 1.312-5.248a530.558 530.558 0 0 0 2.46-11.316c.765-3.717 1.148-6.724 1.148-9.02 0-5.576-1.968-8.364-5.904-8.364-2.843 0-5.357 1.421-7.544 4.264-2.187 2.733-3.936 6.341-5.248 10.824L558.673 123h-23.616l17.384-82h23.616l-1.804 8.528c5.467-6.123 11.863-9.184 19.188-9.184 5.576 0 10.004 1.53 13.284 4.592 3.28 3.061 4.92 7.708 4.92 13.94 0 3.17-.383 6.724-1.148 10.66-.765 3.827-1.859 8.528-3.28 14.104a438.254 438.254 0 0 0-2.46 10.004c-.656 3.17-.984 5.685-.984 7.544 0 2.187.492 3.881 1.476 5.084.984 1.203 2.679 1.804 5.084 1.804 3.28 0 5.904-1.148 7.872-3.444 1.968-2.405 3.936-6.068 5.904-10.988h6.888c-4.045 12.027-8.747 20.117-14.104 24.272-5.248 4.045-10.715 6.068-16.4 6.068Zm43.277 0c-6.232 0-11.425-2.132-15.58-6.396-4.155-4.264-6.232-10.933-6.232-20.008 0-8.09 1.585-16.564 4.756-25.42 3.28-8.965 8.091-16.51 14.432-22.632 6.451-6.232 14.104-9.348 22.96-9.348 4.483 0 7.817.765 10.004 2.296 2.187 1.53 3.28 3.553 3.28 6.068v.656l8.036-37.72 24.272-3.28-18.86 88.56c-.437 1.64-.656 3.225-.656 4.756 0 4.373 2.241 6.56 6.724 6.56 1.968 0 3.717-.328 5.248-.984-.437 5.467-2.405 9.676-5.904 12.628-3.389 2.843-7.435 4.264-12.136 4.264-4.373 0-8.091-1.093-11.152-3.28-2.952-2.296-4.92-5.74-5.904-10.332-6.56 9.075-14.323 13.612-23.288 13.612Zm10.66-15.908c2.405 0 4.811-1.039 7.216-3.116 2.515-2.077 4.373-4.975 5.576-8.692l.656-2.624 8.036-37.556c-.984-3.827-3.225-5.74-6.724-5.74-4.373 0-8.309 2.57-11.808 7.708-3.499 5.03-6.232 11.152-8.2 18.368-1.968 7.107-2.952 13.393-2.952 18.86 0 5.467.765 8.965 2.296 10.496 1.64 1.531 3.608 2.296 5.904 2.296Z"/><path fill="#FF7426" d="M720.126 123.656c-3.608 0-6.669-1.257-9.184-3.772-2.515-2.515-3.772-5.576-3.772-9.184 0-3.608 1.257-6.669 3.772-9.184 2.515-2.624 5.576-3.936 9.184-3.936 3.608 0 6.669 1.312 9.184 3.936 2.624 2.515 3.936 5.576 3.936 9.184 0 3.608-1.312 6.669-3.936 9.184-2.515 2.515-5.576 3.772-9.184 3.772Z"/></svg>