<svg aria-hidden="true" style="position: absolute; width: 0; height: 0; overflow: hidden;" version="1.1" xmlns="http://www.w3.org/2000/svg" xmlns:xlink="http://www.w3.org/1999/xlink">
<defs>
<symbol id="icon-Vector-5" viewBox="0 0 32 32">
<path fill="#dbe2e5" style="fill: var(--color1, #dbe2e5)" d="M22.549 2.909c-1.27-0.002-2.523 0.292-3.659 0.859s-2.125 1.392-2.886 2.408c-1.032-1.372-2.468-2.386-4.108-2.897s-3.397-0.493-5.026 0.050c-1.629 0.543-3.045 1.585-4.049 2.978s-1.544 3.066-1.545 4.783c0 9.799 13.615 17.536 14.194 17.861 0.163 0.091 0.346 0.139 0.533 0.139s0.37-0.048 0.533-0.139c2.504-1.467 4.854-3.181 7.015-5.118 4.764-4.287 7.179-8.575 7.179-12.743-0.002-2.169-0.865-4.249-2.399-5.783s-3.614-2.397-5.783-2.399z"></path>
</symbol>
<symbol id="icon-ForkKnife" viewBox="0 0 32 32">
<path d="M15.999 9.972c-0.001-0.018-0.001-0.036-0.003-0.054s-0.004-0.036-0.006-0.054c-0.001-0.009-0.002-0.018-0.003-0.028l-1-6c-0.021-0.13-0.068-0.254-0.138-0.365s-0.16-0.208-0.267-0.285c-0.107-0.076-0.228-0.131-0.356-0.161s-0.261-0.034-0.39-0.012c-0.13 0.022-0.254 0.069-0.365 0.138s-0.208 0.16-0.284 0.267c-0.076 0.107-0.131 0.228-0.16 0.356s-0.034 0.261-0.012 0.39l0.806 4.836h-2.319v-5c0-0.265-0.105-0.52-0.293-0.707s-0.442-0.293-0.707-0.293c-0.265 0-0.52 0.105-0.707 0.293s-0.293 0.442-0.293 0.707v5h-2.32l0.806-4.836c0.022-0.13 0.018-0.262-0.012-0.39s-0.084-0.249-0.16-0.356c-0.076-0.107-0.173-0.198-0.284-0.267s-0.236-0.116-0.365-0.138c-0.13-0.022-0.262-0.017-0.39 0.012s-0.249 0.084-0.356 0.161c-0.107 0.076-0.198 0.173-0.267 0.285s-0.116 0.236-0.138 0.365l-1 6c-0.002 0.009-0.002 0.019-0.003 0.028-0.002 0.018-0.005 0.036-0.006 0.054s-0.002 0.036-0.003 0.054c-0 0.009-0.001 0.019-0.001 0.028s0.001 0.018 0.001 0.027c0 0.006 0 0.012 0 0.018 0.012 1.277 0.467 2.51 1.288 3.488s1.956 1.641 3.211 1.875v12.593c0 0.265 0.105 0.52 0.293 0.707s0.442 0.293 0.707 0.293 0.52-0.105 0.707-0.293c0.188-0.187 0.293-0.442 0.293-0.707v-12.593c1.255-0.234 2.39-0.896 3.211-1.875s1.276-2.211 1.288-3.488c0-0.006 0-0.012 0.001-0.018 0-0.009 0.001-0.018 0.001-0.027s-0.001-0.019-0.001-0.028z"></path>
<path d="M26.499 3.982c-0-0.021-0.001-0.041-0.003-0.062-0.001-0.014-0.002-0.028-0.004-0.042-0.002-0.017-0.005-0.035-0.008-0.052s-0.006-0.035-0.010-0.052c-0.003-0.014-0.007-0.027-0.010-0.041-0.006-0.020-0.011-0.040-0.018-0.059-0.002-0.006-0.003-0.011-0.005-0.017s-0.005-0.012-0.007-0.018c-0.007-0.020-0.016-0.039-0.024-0.058-0.006-0.012-0.011-0.025-0.018-0.037-0.008-0.016-0.017-0.032-0.026-0.048-0.008-0.014-0.016-0.028-0.025-0.041s-0.017-0.025-0.026-0.037c-0.011-0.015-0.021-0.029-0.033-0.044-0.008-0.010-0.017-0.021-0.026-0.031-0.013-0.014-0.025-0.029-0.039-0.042-0.009-0.010-0.019-0.019-0.029-0.028-0.013-0.013-0.027-0.025-0.041-0.037-0.011-0.010-0.023-0.019-0.035-0.028-0.013-0.010-0.026-0.020-0.040-0.030s-0.028-0.019-0.043-0.028c-0.012-0.008-0.024-0.015-0.037-0.022-0.016-0.009-0.033-0.018-0.050-0.026-0.012-0.006-0.023-0.011-0.035-0.017-0.018-0.008-0.036-0.015-0.054-0.022-0.012-0.005-0.024-0.009-0.036-0.013-0.017-0.006-0.035-0.011-0.053-0.016-0.014-0.004-0.029-0.008-0.043-0.011-0.016-0.004-0.032-0.007-0.048-0.010-0.017-0.003-0.035-0.006-0.053-0.008-0.014-0.002-0.027-0.003-0.041-0.004-0.020-0.002-0.041-0.003-0.062-0.003-0.007-0-0.013-0.001-0.019-0.001s-0.012 0.001-0.018 0.001c-0.021 0-0.041 0.001-0.062 0.003-0.014 0.001-0.028 0.002-0.042 0.004-0.017 0.002-0.034 0.005-0.052 0.008s-0.035 0.006-0.052 0.010c-0.014 0.003-0.027 0.007-0.041 0.010-0.020 0.006-0.040 0.012-0.059 0.018-0.006 0.002-0.011 0.003-0.017 0.005-0.012 0.005-0.025 0.010-0.037 0.014-0.005 0.002-0.009 0.004-0.014 0.006-2.576 0.968-4.639 4.129-6.132 9.397-0.677 2.431-1.169 4.91-1.47 7.416-0.015 0.139-0 0.281 0.043 0.414s0.114 0.257 0.208 0.361c0.094 0.104 0.209 0.188 0.337 0.245s0.267 0.087 0.407 0.087h6v7c0 0.265 0.105 0.52 0.293 0.707s0.442 0.293 0.707 0.293 0.519-0.105 0.707-0.293c0.187-0.187 0.293-0.442 0.293-0.707v-24c0-0.006-0.001-0.012-0.001-0.018z"></path>
</symbol>
<symbol id="icon-Timer" viewBox="0 0 32 32">
<path d="M13 2h6c0.265 0 0.52-0.105 0.707-0.293s0.293-0.442 0.293-0.707-0.105-0.52-0.293-0.707c-0.187-0.188-0.442-0.293-0.707-0.293h-6c-0.265 0-0.52 0.105-0.707 0.293s-0.293 0.442-0.293 0.707c0 0.265 0.105 0.52 0.293 0.707s0.442 0.293 0.707 0.293z"></path>
<path d="M16 4c-2.373 0-4.693 0.704-6.667 2.022s-3.511 3.193-4.42 5.385c-0.908 2.193-1.146 4.606-0.683 6.933s1.606 4.466 3.284 6.144c1.678 1.678 3.816 2.821 6.144 3.284s4.741 0.225 6.933-0.683c2.193-0.908 4.067-2.446 5.385-4.42s2.022-4.293 2.022-6.667c-0.004-3.181-1.269-6.232-3.519-8.481s-5.3-3.515-8.481-3.519zM21.657 11.757l-4.95 4.95c-0.093 0.093-0.203 0.167-0.324 0.217s-0.251 0.076-0.383 0.076-0.261-0.026-0.383-0.076c-0.121-0.050-0.232-0.124-0.324-0.217s-0.167-0.203-0.217-0.324c-0.050-0.121-0.076-0.251-0.076-0.383s0.026-0.261 0.076-0.383c0.050-0.121 0.124-0.232 0.217-0.324l4.95-4.95c0.093-0.093 0.203-0.167 0.324-0.217s0.251-0.076 0.383-0.076c0.131 0 0.261 0.026 0.383 0.076s0.232 0.124 0.324 0.217c0.093 0.093 0.167 0.203 0.217 0.324s0.076 0.251 0.076 0.383c0 0.131-0.026 0.261-0.076 0.383s-0.124 0.232-0.217 0.324h-0z"></path>
</symbol>
<symbol id="icon-Vector-4" viewBox="0 0 32 32">
<path fill="#fff" style="fill: var(--color2, #fff)" d="M16 0.4c-3.085 0-6.101 0.915-8.667 2.629s-4.565 4.151-5.746 7.001c-1.181 2.851-1.49 5.987-0.888 9.013s2.088 5.806 4.269 7.988c2.182 2.182 4.961 3.668 7.987 4.269s6.163 0.293 9.013-0.888c2.85-1.181 5.287-3.18 7.001-5.746s2.629-5.581 2.629-8.667c-0.005-4.136-1.65-8.101-4.574-11.026s-6.89-4.57-11.026-4.574zM21.466 16.998l-7.2 4.8c-0.181 0.121-0.391 0.19-0.608 0.201s-0.433-0.038-0.624-0.14c-0.192-0.103-0.352-0.255-0.463-0.442s-0.17-0.4-0.17-0.617v-9.6c-0-0.217 0.059-0.431 0.17-0.617s0.272-0.339 0.463-0.442c0.192-0.102 0.407-0.151 0.624-0.14s0.427 0.080 0.608 0.201l7.2 4.8c0.164 0.11 0.299 0.258 0.392 0.432s0.142 0.369 0.142 0.566c0 0.198-0.049 0.392-0.142 0.566s-0.228 0.323-0.392 0.432z"></path>
</symbol>
<symbol id="icon-instagram" viewBox="0 0 32 32">
<path d="M10.903 0.696h11.478c5.282 0 9.565 4.283 9.565 9.565v11.478c0 5.282-4.283 9.565-9.565 9.565h-11.478c-5.282 0-9.565-4.283-9.565-9.565v-11.478c0-5.282 4.283-9.565 9.565-9.565zM22.381 28.435c3.692 0 6.696-3.004 6.696-6.696v-11.478c0-3.692-3.004-6.696-6.696-6.696h-11.478c-3.692 0-6.696 3.003-6.696 6.696v11.478c0 3.692 3.003 6.696 6.696 6.696h11.478z"></path>
<path d="M8.99 16c0-4.226 3.426-7.652 7.652-7.652s7.652 3.426 7.652 7.652c0 4.226-3.426 7.652-7.652 7.652s-7.652-3.426-7.652-7.652zM11.86 16c0 2.636 2.146 4.783 4.783 4.783s4.783-2.146 4.783-4.783c0-2.638-2.146-4.783-4.783-4.783s-4.783 2.145-4.783 4.783z"></path>
<path d="M25.888 7.774c0 0.563-0.456 1.020-1.020 1.020s-1.020-0.457-1.020-1.020c0-0.563 0.456-1.020 1.020-1.020s1.020 0.457 1.020 1.020z"></path>
</symbol>
<symbol id="icon-twitter" viewBox="0 0 32 32">
<path d="M31.947 6.422c-1.138 0.499-2.351 0.83-3.616 0.991 1.301-0.777 2.294-1.997 2.761-3.468-1.213 0.723-2.552 1.234-3.979 1.519-1.152-1.226-2.793-1.986-4.584-1.986-3.474 0-6.271 2.82-6.271 6.277 0 0.497 0.042 0.976 0.145 1.431-5.217-0.254-9.833-2.755-12.934-6.564-0.541 0.939-0.859 2.014-0.859 3.172 0 2.173 1.119 4.1 2.787 5.215-1.008-0.019-1.997-0.312-2.835-0.773 0 0.019 0 0.044 0 0.069 0 3.049 2.175 5.582 5.027 6.166-0.511 0.14-1.067 0.207-1.645 0.207-0.402 0-0.807-0.023-1.188-0.107 0.813 2.485 3.12 4.312 5.863 4.371-2.135 1.67-4.846 2.676-7.78 2.676-0.515 0-1.008-0.023-1.502-0.086 2.78 1.793 6.074 2.816 9.626 2.816 11.547 0 17.86-9.565 17.86-17.856 0-0.277-0.010-0.545-0.023-0.811 1.245-0.884 2.292-1.988 3.145-3.258z"></path>
</symbol>
<symbol id="icon-facebook" viewBox="0 0 32 32">
<path d="M20.979 5.272h2.899v-5.049c-0.5-0.069-2.22-0.224-4.223-0.224-4.179 0-7.042 2.629-7.042 7.46v4.447h-4.612v5.644h4.612v14.201h5.654v-14.2h4.425l0.703-5.644h-5.129v-3.888c0.001-1.631 0.441-2.748 2.713-2.748z"></path>
</symbol>
<symbol id="icon-pinterest2" viewBox="0 0 32 32">
<path d="M16 0c-8.825 0-16 7.175-16 16s7.175 16 16 16 16-7.175 16-16-7.175-16-16-16zM16 29.863c-1.431 0-2.806-0.219-4.106-0.619 0.563-0.919 1.412-2.431 1.725-3.631 0.169-0.65 0.863-3.294 0.863-3.294 0.45 0.863 1.775 1.594 3.175 1.594 4.181 0 7.194-3.844 7.194-8.625 0-4.581-3.738-8.006-8.544-8.006-5.981 0-9.156 4.019-9.156 8.387 0 2.031 1.081 4.563 2.813 5.369 0.262 0.125 0.4 0.069 0.463-0.188 0.044-0.194 0.281-1.131 0.387-1.575 0.031-0.137 0.019-0.262-0.094-0.4-0.575-0.694-1.031-1.975-1.031-3.162 0-3.056 2.313-6.019 6.256-6.019 3.406 0 5.788 2.319 5.788 5.637 0 3.75-1.894 6.35-4.356 6.35-1.363 0-2.381-1.125-2.050-2.506 0.394-1.65 1.15-3.425 1.15-4.613 0-1.063-0.569-1.95-1.756-1.95-1.394 0-2.506 1.438-2.506 3.369 0 1.225 0.412 2.056 0.412 2.056s-1.375 5.806-1.625 6.887c-0.281 1.2-0.169 2.881-0.050 3.975-5.156-2.012-8.813-7.025-8.813-12.9 0-7.656 6.206-13.863 13.862-13.863s13.863 6.206 13.863 13.863c0 7.656-6.206 13.863-13.863 13.863z"></path>
</symbol>
</defs>
</svg>
